<svg width="86" height="28" viewBox="0 0 86 28" fill="none" xmlns="http://www.w3.org/2000/svg">
<path d="M38.0796 1.45557V3.59912H40.1599V5.20679H38.0624V8.465C38.0624 9.18523 38.4613 9.53678 39.0404 9.53678C39.332 9.53678 39.6666 9.44675 39.9454 9.30527L40.4644 10.8958C39.9283 11.1101 39.4865 11.2002 38.916 11.2173C37.2775 11.2773 36.2051 10.3428 36.2051 8.465V5.20679H34.7939V3.59484H36.2051V1.65277L38.0796 1.45557Z" fill="#EC6427"/>
<path d="M43.1154 0.414062V4.60686C43.7888 3.73658 44.6166 3.47506 45.4745 3.47506C47.6192 3.47506 48.5671 4.92839 48.5671 7.14912V11.1276H46.697V7.16198C46.697 5.78582 45.9763 5.20277 44.9812 5.20277C43.8789 5.20277 43.1154 6.13736 43.1154 7.26916V11.1276H41.2495V0.414062H43.1154Z" fill="#EC6427"/>
<path d="M51.2438 8.01936C51.3639 8.95395 52.1789 9.62703 53.4957 9.62703C54.1863 9.62703 55.087 9.36551 55.516 8.92394L56.7127 10.1029C55.9149 10.9303 54.6152 11.329 53.4657 11.329C50.862 11.329 49.3179 9.72134 49.3179 7.30341C49.3179 5.00981 50.8792 3.35498 53.3284 3.35498C55.8548 3.35498 57.4333 4.91549 57.1416 8.02365H51.2438V8.01936ZM55.3444 6.47171C55.2243 5.49425 54.4565 5.00123 53.3842 5.00123C52.3719 5.00123 51.5483 5.48996 51.2695 6.47171H55.3444Z" fill="#EC6427"/>
<path d="M38.1099 16.6279V22.8099L40.6535 19.779H42.8882V19.8861L39.8128 23.3287L43.3171 27.1828V27.32H41.0652L38.1099 23.9074V27.32H36.2397V16.6279H38.1099Z" fill="#EC6427"/>
<path d="M46.2125 17.6525C46.2125 19.1058 44.0078 19.1058 44.0078 17.6525C44.0078 16.1992 46.2125 16.1992 46.2125 17.6525ZM44.1751 19.7489V27.3242H46.0453V19.7489H44.1751Z" fill="#EC6427"/>
<path d="M52.8229 27.3241V23.3756C52.8229 22.2267 52.1967 21.3564 51 21.3564C49.8504 21.3564 49.0698 22.321 49.0698 23.4699V27.3241H47.2168V19.7659H48.8853L49.0097 20.7905C49.7775 20.0402 50.541 19.6587 51.489 19.6587C53.2647 19.6587 54.6888 20.992 54.6888 23.3628V27.3241H52.8229Z" fill="#EC6427"/>
<path d="M63.5241 16.6279V27.3243H61.7783L61.6539 26.2825C61.0706 27.1871 60.1398 27.4915 59.2176 27.4915C57 27.4915 55.3271 26.021 55.3271 23.543C55.3271 20.9408 56.9657 19.5946 59.1704 19.5946C59.9682 19.5946 61.2078 20.0233 61.6496 20.8036V16.6279H63.5241ZM57.2016 23.543C57.2016 24.8592 58.1495 25.7638 59.3462 25.7638C60.5258 25.7638 61.5381 24.9063 61.5381 23.543C61.5381 22.2269 60.5258 21.3395 59.3462 21.3395C58.1495 21.3438 57.2016 22.184 57.2016 23.543Z" fill="#EC6427"/>
<path d="M66.437 24.2205C66.5571 25.1551 67.3721 25.8282 68.6889 25.8282C69.3795 25.8282 70.2803 25.5667 70.7092 25.1251L71.9016 26.3041C71.1038 27.1315 69.8041 27.5302 68.6546 27.5302C66.051 27.5302 64.5068 25.9225 64.5068 23.5046C64.5068 21.211 66.0681 19.5562 68.5173 19.5562C71.0438 19.5562 72.6179 21.1167 72.3306 24.2248H66.437V24.2205ZM70.5376 22.6729C70.4132 21.6911 69.6497 21.2024 68.5774 21.2024C67.5694 21.2024 66.7416 21.6911 66.4628 22.6729H70.5376Z" fill="#EC6427"/>
<path d="M78.3909 21.7856C77.8547 21.2797 77.2413 21.1125 76.525 21.1125C75.6371 21.1125 75.1482 21.3869 75.1482 21.8627C75.1482 22.3515 75.5942 22.6258 76.5551 22.6901C77.9791 22.7802 79.7849 23.1017 79.7849 25.1081C79.7849 26.4414 78.6997 27.586 76.5379 27.586C75.3412 27.586 74.1487 27.3888 73.0464 26.2399L73.9643 24.9066C74.5005 25.5025 75.7229 25.9483 76.5679 25.9612C77.2714 25.9784 77.9319 25.6097 77.9319 25.0566C77.9319 24.5379 77.503 24.3235 76.4307 24.2592C75.0066 24.152 73.308 23.6333 73.308 21.9185C73.308 20.1736 75.1138 19.5605 76.4907 19.5605C77.6703 19.5605 78.5582 19.7921 79.4289 20.5552L78.3909 21.7856Z" fill="#EC6427"/>
<path d="M83.6153 17.6523V19.7959H85.6956V21.4036H83.5982V24.6618C83.5982 25.382 83.9971 25.7336 84.5761 25.7336C84.8678 25.7336 85.2024 25.6435 85.4812 25.502L86.0002 27.0926C85.464 27.3069 85.0179 27.397 84.4517 27.4141C82.8132 27.4741 81.7409 26.5395 81.7409 24.6618V21.4036H80.334V19.7959H81.7409V17.8538L83.6153 17.6523Z" fill="#EC6427"/>
<path d="M18.1776 13.8585C18.1776 11.3848 16.1702 9.37842 13.6952 9.37842C11.2203 9.37842 9.21289 11.3848 9.21289 13.8585C9.21289 16.3321 11.2203 18.3385 13.6952 18.3385C16.1702 18.3385 18.1776 16.3321 18.1776 13.8585Z" fill="#EC6427"/>
<path d="M10.3325 3.77516C10.3325 5.63148 11.8381 7.13626 13.6953 7.13626C15.5526 7.13626 17.0582 5.63148 17.0582 3.77516C17.0582 1.91884 15.5526 0.414062 13.6953 0.414062C11.8381 0.414062 10.3325 1.91884 10.3325 3.77516Z" fill="#EC6427"/>
<path d="M10.3325 23.9417C10.3325 25.798 11.8381 27.3028 13.6953 27.3028C15.5526 27.3028 17.0582 25.798 17.0582 23.9417C17.0582 22.0853 15.5526 20.5806 13.6953 20.5806C11.8381 20.5806 10.3325 22.0853 10.3325 23.9417Z" fill="#EC6427"/>
<path d="M20.4214 13.8587C20.4214 15.715 21.9269 17.2198 23.7842 17.2198C25.6415 17.2198 27.147 15.715 27.147 13.8587C27.147 12.0023 25.6415 10.4976 23.7842 10.4976C21.9269 10.4976 20.4214 12.0023 20.4214 13.8587Z" fill="#EC6427"/>
<path d="M0.244141 13.8587C0.244141 15.715 1.74969 17.2198 3.60697 17.2198C5.46425 17.2198 6.9698 15.715 6.9698 13.8587C6.9698 12.0023 5.46425 10.4976 3.60697 10.4976C1.74969 10.4976 0.244141 12.0023 0.244141 13.8587Z" fill="#EC6427"/>
</svg>
